<?xml version="1.0" encoding="UTF-8"?>
<svg width="180px" height="56px" viewBox="0 0 180 56" version="1.1" xmlns="http://www.w3.org/2000/svg" xmlns:xlink="http://www.w3.org/1999/xlink">
    <title>logo180+56</title>
    <g id="页面-1" stroke="none" stroke-width="1" fill="none" fill-rule="evenodd">
        <g id="logo" transform="translate(0.000000, 4.000000)">
            <g id="X" transform="translate(26.828903, 0.657950)">
                <path d="M0,37.4229098 L12.0478294,37.4229098 C18.1534696,29.0121626 24.8536651,21.912792 32.148416,16.1247982 C41.130582,9.40916625 54.517182,4.03423352 72.3082158,0 C53.5470206,1.92363709 39.3014942,5.82336557 29.5716365,11.6991855 C19.8417788,17.5750053 9.98456664,26.1495801 0,37.4229098 Z" id="路径-17" fill="#0083C5"></path>
                <polygon id="路径-18" fill="#0083C5" points="7.36846055 11.5570751 17.9366125 11.5570751 20.0262095 14.079013 13.697335 18.7114549"></polygon>
                <polygon id="路径-19" fill="#0083C5" points="30.3028565 26.4161716 25.5295785 34.5668855 27.9162175 37.4229098 38.7376644 37.4229098"></polygon>
                <path d="M16.528564,37.4229098 L21.5337188,37.4229098 C23.7494644,31.7820146 27.2646997,26.5003174 32.0794247,21.5778181 C36.8941497,16.6553188 42.4155844,12.5812886 48.6437287,9.35572745 C41.5761967,12.5765421 35.5670449,16.3209027 30.6162733,20.5888093 C25.6655017,24.8567158 20.9695986,30.4680827 16.528564,37.4229098 Z" id="路径-20" fill="#A0CB2B"></path>
            </g>
            <path d="M81.6372105,9.60543465 C89.0652186,6.36451544 99.8378541,4.14822868 113.955117,2.95657437 C128.07238,1.76492006 142.377171,2.3856267 156.86949,4.8186943 C142.085351,0.826536735 127.522069,-0.68507511 113.179645,0.283858762 C98.8372213,1.25279263 88.3230764,4.3599846 81.6372105,9.60543465 Z" id="路径-16" fill="#A0CB2B"></path>
            <g id="NXINZSK" transform="translate(0.000000, 11.252591)" fill="#102030" fill-rule="nonzero">
                <path d="M0,26.7169224 L3.29859115,26.7169224 L10.6684406,4.00634363 L10.8933446,4.00634363 L16.2680518,26.7169224 L20.7286467,26.7169224 L29.0996378,0.921273186 L25.7260786,0.921273186 L18.7783973,22.3309186 L18.5534933,22.3309186 L13.6562337,0.921273186 L8.37099107,0.921273186 L0,26.7169224 Z M70.8815241,26.8282682 L74.1059802,26.8282682 L82.6829645,0.460636593 L79.4585084,0.460636593 L70.8815241,26.8282682 Z M81.0155291,26.8282682 L84.3141203,26.8282682 L91.889963,3.54570703 L92.1148669,3.54570703 L97.283581,26.8282682 L101.744176,26.8282682 L110.32116,0.460636593 L106.947601,0.460636593 L99.7939264,22.1378843 L99.5690225,22.1378843 L94.8777561,0.460636593 L89.5925134,0.460636593 L81.0155291,26.8282682 Z M107.271815,26.8282682 L127.079188,26.8282682 L128.056206,23.8175368 L111.908481,23.8175368 L111.980852,23.5945196 L133.751094,3.6572156 L134.788421,0.460636593 L116.603366,0.460636593 L115.63841,3.43419846 L129.899719,3.43419846 L129.865076,3.6572156 L108.381514,23.408672 L107.271815,26.8282682 Z M137.9218,26.9845246 C143.954916,26.9845246 148.15551,24.4002102 149.792495,19.3557564 C151.441605,14.2739362 149.827172,12.7419168 144.41912,11.3967291 C140.057396,10.3131057 139.695271,9.45368023 140.483449,7.02486911 C141.574772,3.66189985 143.539684,2.95193968 147.19726,2.95193968 C149.5728,2.95193968 152.054653,3.4377019 153.381045,3.99819678 L154.375361,0.934158126 C153.288667,0.4483959 150.64386,0 148.117493,0 C142.197497,0 138.65538,2.31671215 137.127528,7.02486911 C135.636053,11.6209271 137.172413,12.9287485 142.114526,14.1992035 C146.640533,15.3575596 147.492849,16.2169851 146.462155,19.3931227 C145.419335,22.6066266 142.801265,24.0325849 138.879739,24.0325849 C135.787767,24.0325849 132.852101,23.4347237 131.488002,22.8742289 L130.48156,25.9756338 C131.618087,26.4240297 134.679,26.9845246 137.9218,26.9845246 Z M165.440666,12.4663926 L180,0.460636593 L175.794745,0.460636593 L163.184941,11.2026288 L161.345142,11.2026288 L164.831045,0.460636593 L161.451822,0.460636593 L152.874838,26.8282682 L156.25406,26.8282682 L160.392248,14.1390212 L162.232047,14.1390212 L167.405495,26.8282682 L171.760938,26.8282682 L165.440666,12.4663926 Z" id="形状结合"></path>
            </g>
        </g>
    </g>
</svg>